<svg xmlns="http://www.w3.org/2000/svg" height="800" width="1200" viewBox="-190.9875 -27.92675 1655.225 167.5605"><defs><clipPath clipPathUnits="userSpaceOnUse" id="a"><path d="M0 0h10186v893.66H0z"/></clipPath></defs><g clip-path="url(#a)" transform="matrix(.125 0 0 -.125 0 111.707)"><path d="M969.23 564.043L794.734 694.848l-45.531-34.129-90.098 67.64 45.95 34.457L530.508 893.66l-45.895-34.496-45.89 34.496-174.547-130.844 45.945-34.457-90.098-67.64-45.535 34.129L0 564.043l45.531-34.254L0 495.703l174.488-130.891 45.535 34.043 90.043-67.515-45.89-34.414 174.547-130.918 45.89 34.414 45.895-34.414 174.547 130.918-45.95 34.414 90.098 67.515 45.531-34.043L969.23 495.703l-45.484 34.086m-439.133-67.477l-90.097 67.477 90.097 67.684 90.094-67.684-90.094-67.477" fill="#9dddce"/><path d="M1828.71 833.867l-29.12-99.429s-43.63 21.808-104.16 28.378c-71.3 7.637-105.44-24.679-112.68-48.914-12.53-41.722 1.56-75.316 30.24-95.812 97.02-69.035 151.55-107.891 163.61-181.774 15.09-91.875-9.09-218.125-178.09-247.234-126.08-21.77-205.44 22.996-229.73 30.227l29.73 106.66s26.38-18.403 60.62-30.356c42.92-14.82 98.67-22.383 135.07-3.687 36.19 18.719 58.22 45.625 60.01 81.187 1.56 28.75-9.85 64.68-42.4 93.348-70.28 61.766-177.57 74.539-159.4 232.738 9.9 85.836 78.18 163.66 205.39 167.235 104.01 3.281 170.91-32.696 170.91-32.696m289.74-635.008h113.91l92.1 478.29h-113.91l-49.44-254.708c-27.26-129.902-91.33-150.156-128.81-144.812-16.99 2.473-30.75 7.52-41.12 21.809-25.46 35.117-9.29 111.992-9.29 111.992l51.18 265.719h-113.91l-54.99-285.672s-17.29-112.61 29.42-161.075c25.62-26.574 47.13-38.32 103.04-42.468 56.98-4.106 98.15 32.207 129.72 51.914m7802.61 437.386h-114.01l-92.04-478.328h113.93l49.41 254.625c27.23 130.106 91.29 150.27 128.85 144.934 17-2.469 30.8-7.559 41.1-21.809 25.5-35.117 9.3-112.078 9.3-112.078l-51.2-265.672h113.9l55.1 285.633s17.2 112.695-29.5 161.156c-25.6 26.528-47.2 38.235-103 42.422-57.04 4.106-107.18-25.011-129.76-51.832m-6873.71-98.359c2.05 13.676 4.62 46.367-14.53 80.047-18.02 31.664-50.87 73.636-123.62 69.937-64.48-2.875-111.76-50.843-111.76-50.843-13.65-11.786-26.44-36.387-28.23-36.387 0 0-6.32 31.789-25.46 50.883-9.97 10.066-23.62 26.371-70.9 34.543-91.89 15.894-147.85-62.754-147.85-62.754l9.65 53.882h-113.97l-85.37-478.375h113.91l42.47 237.915s23.96 127.519 83.62 152.449c53.03 22.015 75.72-15.032 83.01-33.102 10.17-25.094-.53-67.515-.53-67.515l-51.7-289.747h113.92l45.02 252.618c7.85 35.937 29.62 136.472 95.07 143.824 58.32 6.449 71.82-41.852 70.03-66.449-1.03-17.004-5.55-51.211-5.55-51.211l-49.74-278.782h113.91l58.37 327.161m1784.11 11.906c2.05 13.676 4.64 46.367-14.58 80.047-18.03 31.664-50.89 73.636-123.62 69.937-64.36-2.875-111.71-50.843-111.71-50.843-13.63-11.786-26.49-36.387-28.21-36.387 0 0-6.37 31.789-25.5 50.883-9.98 10.066-23.62 26.371-70.93 34.543-91.84 15.894-147.89-62.754-147.89-62.754l9.65 53.882h-113.84l-85.51-478.375h114.01l42.47 237.915s23.93 127.519 83.57 152.449c53.06 22.015 75.81-15.032 83.08-33.102 10.14-25.094-.41-67.515-.41-67.515l-51.62-289.747h113.84l45.05 252.618c7.84 35.937 29.61 136.472 95.08 143.824 58.23 6.449 71.79-41.852 70.02-66.449-1.23-17.004-5.55-51.211-5.55-51.211L4658.8 198.73h113.92l58.49 327.161M3279.58 677.105h-113.93l-92.09-478.328h113.92m19.09 690.696h113.92l-22.18-115.407h-113.96m368.59-574.925c-24.64-10.223-75-22.957-132.96 0-81.78 31.828-60.21 141.726-60.21 141.726l48.3 251.223h-85.47l16.36 85.426h85.53L3444 777.641l122.65 43.285-28.24-143.41h97.49l-16.48-85.426h-97.44l-46.97-243.953c-7.74-34.414 3.09-65.371 28.54-70.762 16.07-3.691 45.48 1.238 66.38 10.309m5643.03 389.421h-113.85l-92.2-478.328h113.93m19.1 690.696h113.97l-22.27-115.407h-113.93m-183.94-574.925c-24.69-10.223-74.99-22.957-133.07 0-81.76 31.828-60.2 141.726-60.2 141.726l48.3 251.223h-85.43l16.39 85.426h85.5l19.48 100.125 122.58 43.285-28.13-143.41h97.46l-16.39-85.426h-97.46l-47.02-243.953c-7.8-34.414 2.87-65.371 28.62-70.762 16.02-3.691 45.42 1.238 66.25 10.309m-2919.03-86.571c-32.73-6.035-168.43-32.734-243.62 3.699-115.62 55.942-161.61 144.231-157.46 309.043 4.6 197.586 134.46 286.086 134.46 286.086 167.23 116.309 381.74 27.801 381.74 27.801l-30.31-98.07c-27.89 21.769-97.71 49.777-184.2 32.734-86.08-17.047-154.42-87.433-175.77-203.578-16.93-92.164 7.3-221.902 94.5-260.676 86.4-38.308 162.42-.816 198.77 19.309m700.31 103.047c2.05 7.097 8.3 31.047 11.13 39.051 55.4 160.953 164.48 102.8 164.48 102.8l25.46 116.309s-26.4 27.27-92.73-2.469c-26.49-11.949-60-48.172-79.05-81.765l16.22 82.836h-113.97l-84.81-478.297h113.92m1373.69 221.535c2.06 7.097 8.3 31.047 11.13 39.051 55.44 160.953 164.52 102.8 164.52 102.8l25.38 116.309s-26.41 27.27-92.61-2.469c-26.57-11.949-60.09-48.172-79.18-81.765l16.22 82.836H8016l-84.81-478.297h113.89M3880.52 689.551c-131.55 0-237.12-103.703-254.48-244.817-19.45-157.539 62.28-259.39 193.86-259.39 131.51 0 243.63 96.968 259.36 240.094 17.49 158.484-67.28 264.113-198.74 264.113m81.15-269.043c-16.88-86.906-69.03-151.516-139.38-146.699-65.35 4.597-95.57 80.695-77.5 167.351 18.02 86.535 65.46 162.352 145.38 155.164 59.34-5.426 89.69-82.551 71.5-175.816m1184.09 269.043c-131.59 0-237.14-103.703-254.47-244.817-19.46-157.539 62.26-259.39 193.85-259.39 131.54 0 243.58 96.968 259.23 240.094 17.57 158.484-67.15 264.113-198.61 264.113m81.14-269.043c-16.95-86.906-69.07-151.516-139.42-146.699-65.34 4.597-95.6 80.695-77.5 167.351 18.03 86.535 65.42 162.352 145.43 155.164 59.31-5.426 89.65-82.551 71.49-175.816m1141.53 269.043c-131.47 0-237.09-103.703-254.47-244.817-19.34-157.539 62.39-259.39 193.89-259.39 131.54 0 243.54 96.968 259.31 240.094 17.58 158.484-67.19 264.113-198.73 264.113m81.23-269.043c-16.88-86.906-69.03-151.516-139.43-146.699-65.34 4.597-95.52 80.695-77.46 167.351 17.99 86.535 65.38 162.352 145.43 155.164 59.22-5.426 89.61-82.551 71.46-175.816m791.48 266.699c-52.44-1.23-91.08-19.055-125.75-59.098l8.99 48.911h-113.92L6886.1 0h114.01l49 267.312c17.25-49.531 54.94-79.832 112.11-80.703 148.97-2.461 217.18 107.981 236.15 250.157 19.06 142.265-30.22 252.785-156.23 250.441m37.5-266.699c-14.74-85.301-58.28-145.633-123.62-141.77-61.77 3.696-95.68 69.035-70.23 173.309 23.5 96.551 63.46 142.758 120.58 141.808 70.85-.82 89.08-82.425 73.27-173.347m431.43 269.043c-131.54 0-237.17-103.703-254.42-244.817-19.43-157.539 62.3-259.39 193.84-259.39 131.59 0 243.63 96.968 259.28 240.094 17.62 158.484-67.15 264.113-198.65 264.113m81.11-269.043c-16.85-86.906-69-151.516-139.31-146.699-65.43 4.597-95.65 80.695-77.58 167.351 18.07 86.535 65.5 162.352 145.43 155.164 59.3-5.426 89.57-82.551 71.46-175.816m781.75 261.937c-92.16 36.266-230.4-18.195-230.4-18.195l-14.54-92.199s87.19 39.219 156.39 35.234c105.51-6.074 70.39-113.965 70.39-113.965-70.39 10.801-169.57-6.777-195.2-17.004-62.42-24.886-117-64.683-117-150.308 0-63.617 32.23-136.352 143.66-132.699 55.68 1.64 123.65 52.777 138.15 87.265 1.23 2.473-12.94-80.652-12.94-80.652l95.9-1.231c11.21 68.379 48.46 282.024 52.82 319.926 4.59 42.469 8.99 125.633-87.27 163.703m-81.24-376.273c-36.35-34.621-100-34.621-125.38-7.309-22.1 23.614-12.85 69.817 17.58 93.965 58.06 46.074 158.73 27.844 158.73 27.844s0-65.996-50.93-114.5m1002.26 383.504c-131.6 0-237.18-103.703-254.43-244.817-19.47-157.539 62.22-259.39 193.85-259.39 131.66 0 243.66 96.968 259.27 240.094 17.57 158.484-67.15 264.113-198.69 264.113m81.26-269.043c-16.95-86.906-69.07-151.516-139.34-146.699-65.42 4.597-95.73 80.695-77.62 167.351 18.03 86.535 65.46 162.352 145.42 155.164 59.44-5.426 89.66-82.551 71.54-175.824" fill="#1a1715"/></g></svg>