<svg clip-rule="evenodd" fill-rule="evenodd" stroke-linejoin="round" stroke-miterlimit="2" viewBox="0 0 560 400" xmlns="http://www.w3.org/2000/svg"><g fill-rule="nonzero" transform="matrix(.362894 0 0 .362894 94.1981 99.8412)"><path d="m15.988 15.623h992.024v520.755h-992.024z" fill="#e98300"/><path d="m439.212 205.727h-199.38c-16.168 0-29.278-13.109-29.278-29.278 0-16.132 13.11-29.241 29.278-29.241h199.38c16.168 0 29.277 13.109 29.277 29.241 0 16.169-13.109 29.278-29.277 29.278zm-9.843 117.207c0-16.204-13.109-29.313-29.277-29.313h-199.417c-16.168 0-29.241 13.109-29.241 29.277 0 16.133 13.073 29.242 29.241 29.242h199.417c16.132 0 29.241-13.073 29.277-29.206zm-316.696-73.49c0 7.774 3.059 15.26 8.574 20.739 5.489 5.516 12.938 8.611 20.739 8.611h199.38c16.168 0 29.277-13.109 29.277-29.242 0-16.168-13.109-29.277-29.277-29.277h-199.38c-7.765 0-15.223 3.059-20.703 8.539-5.479 5.452-8.574 12.866-8.61 20.63zm412.994-100.616-12.434 45.895h61.676l-41.963 155.662h53.102l41.72-155.662h61.686l12.119-45.895zm191.301 0-53.984 201.557h161.951l11.814-44.599h-109.866l9.906-36.655h98.133l11.139-40.668h-98.341l9.663-35.18h109.516l12.092-44.392h-161.951l-.072-.065zm-234.137 276.667c4.426 0 8.646-1.8 11.732-4.994l-4.462-5.659c-1.791 1.79-4.211 2.879-6.748 3.023-1.719 0-3.374-.702-4.535-2.006-1.161-1.296-1.683-3.024-1.476-4.742-.278-5.344 3.554-9.978 8.863-10.716 2.843-.108 5.479 1.476 6.748 4.04l6.748-4.715c-2.6-4.498-7.486-7.098-12.623-6.748-4.985-.171-9.835 1.692-13.388 5.174-3.545 3.473-5.552 8.259-5.516 13.244-.144 3.869 1.404 7.594 4.22 10.266 2.807 2.672 6.64 3.968 10.473 3.617zm31.769 0c9.735-.216 17.608-8.053 17.815-17.824.216-3.932-1.296-7.729-4.139-10.473-2.852-2.708-6.721-4.076-10.653-3.689-9.735.208-17.571 8.08-17.823 17.815-.136 3.905 1.412 7.702 4.255 10.374 2.844 2.672 6.712 4.004 10.617 3.581zm.387-7.486c-1.79.099-3.589-.567-4.885-1.863-1.305-1.268-1.97-3.059-1.862-4.885-.072-5.138 3.76-9.492 8.853-10.122 1.826-.108 3.626.558 4.885 1.826 1.305 1.296 1.971 3.095 1.863 4.922 0 5.056-3.761 9.348-8.782 9.978zm18.625 6.748h8.79l4.634-17.752c.324-3.482 3.275-6.154 6.748-6.154 1.098-.171 2.222.144 3.059.882.81.738 1.269 1.79 1.197 2.915 0 .918-.144 1.862-.388 2.78l-4.534 16.906h8.79l4.463-16.519c.558-1.898.881-3.869.98-5.866.036-2.394-.944-4.679-2.708-6.262-1.718-1.62-4.076-2.421-6.46-2.178-3.167.18-6.154 1.512-8.367 3.797l.809-3.797h-8.754zm35.638 0h8.719l4.921-17.752c.315-3.482 3.23-6.154 6.748-6.154 1.089-.171 2.213.144 3.023.882.846.738 1.26 1.79 1.224 2.915-.029.918-.171 1.862-.414 2.78l-4.499 16.906h8.674l4.471-16.519c.558-1.826.873-3.689 1.017-5.587.108-2.466-.846-4.85-2.672-6.541-1.791-1.683-4.256-2.493-6.712-2.178-3.203.18-6.19 1.512-8.44 3.797l.954-3.797h-8.79zm45.76-12.335h21.126c.909-2.151 1.44-4.436 1.548-6.748.171-3.347-1.125-6.613-3.518-8.935-2.421-2.312-5.696-3.509-9.034-3.23-10.122.108-18.237 8.332-18.273 18.418-.216 3.761 1.233 7.449 3.968 10.05 2.744 2.6 6.505 3.869 10.266 3.446 4.282.108 8.466-1.341 11.804-4.04l-4.004-5.416c-1.934 1.511-4.282 2.393-6.748 2.429-1.754.278-3.581-.216-4.957-1.413-1.368-1.187-2.142-2.915-2.106-4.705zm.81-5.417c1.089-3.905 4.607-6.604 8.647-6.748 1.295-.207 2.6.18 3.581 1.053.989.882 1.511 2.141 1.475 3.482.108.666.108 1.331 0 2.006h-13.496l-.207.208zm40.488 18.49c4.391-.036 8.575-1.827 11.598-4.994l-4.463-5.659c-1.791 1.826-4.184 2.879-6.748 3.023-1.719 0-3.374-.702-4.535-2.006-1.124-1.296-1.682-3.024-1.439-4.742-.315-5.344 3.545-9.978 8.817-10.716 2.852-.072 5.488 1.512 6.748 4.04l6.748-4.715c-2.564-4.498-7.45-7.098-12.614-6.748-9.978.072-18.067 8.161-18.139 18.139-.207 3.761 1.197 7.45 3.833 10.122 2.636 2.708 6.289 4.184 10.05 4.04zm26.461 0c2.186.036 4.328-.424 6.325-1.269l2.043-7.45c-1.404.63-2.915.981-4.463 1.017-.666.279-1.44.18-1.97-.315-.558-.458-.774-1.196-.594-1.898-.036-.459-.036-.909 0-1.368l3.446-12.938h7.198l2.042-7.485h-7.027l2.105-7.909h-8.718l-2.069 7.63h-3.725l-2.043 7.485h3.725l-3.725 14.234c-.314 1.269-.521 2.564-.521 3.869.171 1.862 1.088 3.581 2.6 4.742 1.475 1.16 3.374 1.619 5.236 1.304l.136.351zm13.01-.532h8.575l8.295-31.454h-8.79zm8.575-34.549h9.168l2.15-7.765h-9.177zm16.87 34.405h7.908l20.244-31.031h-9.384l-12.236 20.244-1.404-20.244h-8.502zm25.588 0h8.745l8.44-31.31h-8.683zm8.961-34.225h9.312l2.07-7.738h-8.818zm19.218 34.756c2.187.036 4.364-.387 6.362-1.268l2.006-7.414c-1.404.639-2.951.954-4.499.99-.558.17-1.196.036-1.655-.324-.45-.351-.738-.909-.738-1.476-.029-.45-.029-.909 0-1.367l3.446-12.966h7.243l2.006-7.485h-7.207l2.07-7.873h-8.683l-1.61 7.342h-3.725l-2.042 7.486h3.868l-3.724 13.99c-.352 1.224-.568 2.529-.604 3.824.108 1.899.99 3.662 2.466 4.886 1.439 1.196 3.338 1.727 5.236 1.448l-.216.208zm17.959 8.647c5.524-.208 10.446-3.554 12.623-8.647l19.156-31.841h-9.457l-11.525 20.91-1.413-20.91h-8.925l3.797 31.032c-.702 1.232-2.007 1.934-3.374 1.898-1.233-.072-2.384-.494-3.374-1.233l-4.67 6.361c2.07 1.584 4.562 2.43 7.162 2.43z" fill="#fff"/></g></svg>